<?xml version="1.0" encoding="UTF-8" standalone="no" ?>
<!DOCTYPE svg PUBLIC "-//W3C//DTD SVG 1.1//EN" "http://www.w3.org/Graphics/SVG/1.1/DTD/svg11.dtd">
<svg xmlns="http://www.w3.org/2000/svg" xmlns:xlink="http://www.w3.org/1999/xlink" version="1.1" width="1080" height="1080" viewBox="0 0 1080 1080" xml:space="preserve">
<desc>Created with Fabric.js 4.2.0</desc>
<defs>
</defs>
<g transform="matrix(1 0 0 1 540 540)" id="2e2cd8d3-ff60-4569-a8c8-26eeec00ab1a"  >
<rect style="stroke: none; stroke-width: 1; stroke-dasharray: none; stroke-linecap: butt; stroke-dashoffset: 0; stroke-linejoin: miter; stroke-miterlimit: 4; fill: rgb(204,204,204); fill-rule: nonzero; opacity: 1;" vector-effect="non-scaling-stroke"  x="-540" y="-540" rx="0" ry="0" width="1080" height="1080" />
</g>
<g transform="matrix(1 0 0 1 540 540)" id="d5bff88c-7e61-46a4-9e3f-409629e40832"  >
</g>
<g transform="matrix(27.09 0 0 27.09 540 540)" id="134f3eaa-b818-4360-8d2f-957d0f45dc73"  >
<path style="stroke: rgb(0,0,0); stroke-width: 0; stroke-dasharray: none; stroke-linecap: butt; stroke-dashoffset: 0; stroke-linejoin: miter; stroke-miterlimit: 4; fill: rgb(137,137,137); fill-rule: nonzero; opacity: 1;" vector-effect="non-scaling-stroke"  transform=" translate(-10.02, -9.76)" d="M 16.64 2.32 C 15.023172983298172 0.6923508842346977 12.44072657174032 0.5416085983203567 10.645507424115456 1.970090120073284 C 8.850288276490591 3.3985716418262113 8.41711248949438 5.948887591447145 9.64 7.890000000000001 L 4.85 12.69 L 3.59 13.95 L 3.59 13.95 L 2.34 15.2 C 1.952276405289201 15.590037454310922 1.9522764052892008 16.219962545689075 2.34 16.61 L 3.59 17.86 L 3.59 17.86 L 4.01 18.28 C 4.4067602774557 18.619776795928704 4.998194171545706 18.596932269681034 5.36756322061337 18.22756322061337 C 5.7369322696810325 17.85819417154571 5.759776795928703 17.266760277455703 5.42 16.87 L 5 16.46 L 5 16.46 C 4.704013142058361 16.156947552038798 4.704013142058361 15.673052447961203 5 15.370000000000001 C 5.305149168809494 15.07920628312385 5.784850831190506 15.07920628312385 6.09 15.370000000000001 L 6.09 15.370000000000001 L 6.51 15.790000000000001 C 6.9067602774557 16.129776795928702 7.498194171545706 16.106932269681035 7.86756322061337 15.73756322061337 C 8.236932269681033 15.368194171545706 8.259776795928703 14.7767602774557 7.92 14.38 L 7.52 14 L 7.52 14 L 7 13.4 L 11.1 9.3 C 13.041112408552856 10.522887510505626 15.59142835817379 10.089711723509415 17.019909879926722 8.29449257588455 C 18.44839140167965 6.499273428259685 18.297649115765307 3.916827016701828 16.67 2.3000000000000007 Z M 15.23 7.32 C 14.253038417397157 8.294494937620327 12.671275147826655 8.293162036703292 11.695957302455477 7.317021976143327 C 10.7206394570843 6.34088191558336 10.7206394570843 4.759118084416642 11.695957302455477 3.782978023856675 C 12.671275147826655 2.806837963296708 14.253038417397157 2.805505062379674 15.23 3.7799999999999994 C 16.173564351534626 4.753586935912734 16.169128107076933 6.3018362516477575 15.22 7.27 Z" stroke-linecap="round" />
</g>
</svg>